<?xml version="1.0" ?><svg xmlns="http://www.w3.org/2000/svg" viewBox="0 0 64 64"><defs><style>.cls-1{fill:#00008c;}.cls-2{fill:#fff;}.cls-3{fill:red;}</style></defs><title/><g id="United_Kingdom" data-name="United Kingdom"><path class="cls-1" d="M56,32a23,23,0,0,1-.34,4c-.11.68-.25,1.35-.42,2A23.92,23.92,0,0,1,51,46.71c-.26.34-.53.68-.82,1a19.05,19.05,0,0,1-1.38,1.46,19.13,19.13,0,0,1-2,1.78A23.92,23.92,0,0,1,38,55.24c-.65.17-1.32.31-2,.42a23.7,23.7,0,0,1-8,0c-.68-.11-1.35-.25-2-.42A23.92,23.92,0,0,1,17.29,51c-.34-.26-.68-.53-1-.82a19.05,19.05,0,0,1-1.46-1.38,19.12,19.12,0,0,1-1.78-2A23.92,23.92,0,0,1,8.76,38c-.17-.65-.31-1.32-.42-2a23.7,23.7,0,0,1,0-8c.11-.68.25-1.35.42-2A23.92,23.92,0,0,1,13,17.29c.26-.34.53-.68.82-1a19.05,19.05,0,0,1,1.38-1.46,19.13,19.13,0,0,1,2-1.78A23.91,23.91,0,0,1,26,8.76c.65-.17,1.32-.31,2-.42a23.7,23.7,0,0,1,8,0c.68.11,1.35.25,2,.42A23.91,23.91,0,0,1,46.71,13c.34.26.68.53,1,.82a19,19,0,0,1,1.46,1.38,19.13,19.13,0,0,1,1.78,2A23.92,23.92,0,0,1,55.24,26c.17.65.31,1.32.42,2A23,23,0,0,1,56,32Z"/><path class="cls-2" d="M51,46.71c-.26.34-.53.68-.82,1a19.05,19.05,0,0,1-1.38,1.46,19.13,19.13,0,0,1-2,1.78L13,17.29c.26-.34.53-.68.82-1a19.05,19.05,0,0,1,1.38-1.46,19.13,19.13,0,0,1,2-1.78l25,25Z"/><path class="cls-2" d="M51,17.29,17.29,51c-.34-.26-.68-.53-1-.82a19.05,19.05,0,0,1-1.46-1.38,19.12,19.12,0,0,1-1.78-2L21.76,38l25-25c.34.26.68.53,1,.82a19,19,0,0,1,1.46,1.38A19.13,19.13,0,0,1,51,17.29Z"/><path class="cls-3" d="M29.71,29.29l-1.42,1.42L13.87,16.29a19.05,19.05,0,0,1,1.38-1.46L26,25.58l.42.42L28,27.58l.42.42Z"/><path class="cls-3" d="M50.13,47.71a19.05,19.05,0,0,1-1.38,1.46L35.29,35.71,36,35l.71-.71L38,35.58l.42.42,2,2Z"/><path class="cls-3" d="M30.71,35.71,16.29,50.13a19.05,19.05,0,0,1-1.46-1.38L25.58,38l.42-.42L27.58,36l.42-.42,1.29-1.29Z"/><path class="cls-3" d="M49.17,15.25,35.71,28.71,35,28l-.71-.71L35.58,26l.42-.42,2-2,9.71-9.71A19,19,0,0,1,49.17,15.25Z"/><path class="cls-2" d="M56,32a23,23,0,0,1-.34,4c-.11.68-.25,1.35-.42,2H8.76c-.17-.65-.31-1.32-.42-2a23.7,23.7,0,0,1,0-8c.11-.68.25-1.35.42-2H55.24c.17.65.31,1.32.42,2A23,23,0,0,1,56,32Z"/><path class="cls-2" d="M38,8.76V55.24c-.65.17-1.32.31-2,.42a23.7,23.7,0,0,1-8,0c-.68-.11-1.35-.25-2-.42V8.76c.65-.17,1.32-.31,2-.42a23.7,23.7,0,0,1,8,0C36.68,8.45,37.35,8.59,38,8.76Z"/><path class="cls-3" d="M36,8.34V55.66a23.7,23.7,0,0,1-8,0V8.34a23.7,23.7,0,0,1,8,0Z"/><path class="cls-3" d="M56,32a23,23,0,0,1-.34,4H8.34a23.7,23.7,0,0,1,0-8H55.66A23,23,0,0,1,56,32Z"/></g></svg>